<svg xmlns="http://www.w3.org/2000/svg" viewBox="0 0 32 40" x="0px" y="0px"><g><path d="M13.371,8a1,1,0,0,1,1-1H26.258a1,1,0,0,1,0,2H14.371A1,1,0,0,1,13.371,8ZM9.489,5.282,6.982,8.463,6.206,7.438a1,1,0,1,0-1.6,1.207L6.168,10.7a1,1,0,0,0,.788.4h.01a1,1,0,0,0,.785-.381l3.308-4.2a1,1,0,1,0-1.57-1.239ZM26.258,15H14.371a1,1,0,0,0,0,2H26.258a1,1,0,0,0,0-2Zm0,8H14.371a1,1,0,0,0,0,2H26.258a1,1,0,0,0,0-2ZM10.94,16a3.1,3.1,0,1,1-3.1-3.1A3.1,3.1,0,0,1,10.94,16Zm-2,0a1.1,1.1,0,1,0-1.1,1.1A1.1,1.1,0,0,0,8.94,16Zm2,8a3.1,3.1,0,1,1-3.1-3.1A3.1,3.1,0,0,1,10.94,24Zm-2,0a1.1,1.1,0,1,0-1.1,1.1A1.1,1.1,0,0,0,8.94,24Z"/></g><text x="0" y="47" fill="#000000" font-size="5px" font-weight="bold" font-family="'Helvetica Neue', Helvetica, Arial-Unicode, Arial, Sans-serif">Created by The Icon Z</text><text x="0" y="52" fill="#000000" font-size="5px" font-weight="bold" font-family="'Helvetica Neue', Helvetica, Arial-Unicode, Arial, Sans-serif">from the Noun Project</text></svg>